<svg xmlns="http://www.w3.org/2000/svg" viewBox="0 0 1200 430" width="1200" height="430" role="img" aria-label="João Lucas Pinheiro, Engenheiro da Computação e Desenvolvedor de Software">
<style>
  .serif{font-family:Georgia,'Times New Roman',serif} .sans{font-family:Arial,Helvetica,sans-serif}
  .line{stroke:#2a5260;stroke-width:1.5;fill:none}.node{fill:#0e2a36;stroke:#4dc5c2;stroke-width:1.5}
  .glow{animation:fade 4s ease-in-out infinite alternate}.slide{animation:appear 1.2s ease-out both}.sl2{animation:appear 1.4s .2s ease-out both}.dot{animation:blink 2s ease-in-out infinite alternate}
  @keyframes fade{from{opacity:.35}to{opacity:1}}@keyframes appear{from{opacity:0;transform:translateY(15px)}to{opacity:1;transform:translateY(0)}}@keyframes blink{from{opacity:.25}to{opacity:1}}
  @media(prefers-reduced-motion:reduce){*{animation:none!important}}
</style>
<defs><clipPath id="name-reveal-1"><rect x="48" y="147" width="0" height="75"><animate attributeName="width" from="0" to="590" dur="1.45s" begin="0.25s" fill="freeze" /></rect></clipPath><clipPath id="name-reveal-2"><rect x="48" y="218" width="0" height="77"><animate attributeName="width" from="0" to="590" dur="1.30s" begin="1.78s" fill="freeze" /></rect></clipPath></defs>
<rect width="1200" height="430" rx="18" fill="#081924"/>
<path d="M0 350 L1200 350 M0 385 L1200 385" stroke="#193847" opacity=".6"/>
<path d="M38 28 H1160" stroke="#286271"/><circle cx="48" cy="28" r="4" fill="#47d6c4"/>
<text x="67" y="34" class="sans" fill="#8dabb7" font-size="15" letter-spacing="2">PERFIL PROFISSIONAL</text><text x="1120" y="34" text-anchor="end" class="sans" fill="#8dabb7" font-size="14">BRASIL · MS</text>

<g>
<text x="56" y="126" class="sans" fill="#46d6c4" font-size="18" letter-spacing="3">ENGENHARIA DE SOFTWARE</text>
<text x="52" y="202" class="serif" font-size="65" fill="#f5f6f3" clip-path="url(#name-reveal-1)">João Lucas</text>
<text x="52" y="272" class="serif" font-size="65" fill="#f5f6f3" clip-path="url(#name-reveal-2)">Pinheiro<tspan fill="#4dd1c4">.</tspan></text>
</g>
<g class="sl2"><text x="56" y="319" class="sans" fill="#b8cbd1" font-size="20">Engenheiro da Computação  /  Backend &amp; Full Stack</text></g>
<g opacity=".95"><path d="M776 116 L868 116 L918 168 L1013 168 M868 116 L894 256 L1058 256 M918 168 L969 343 L1085 343" class="line"/><path d="M786 116 L869 116" class="line" stroke="#56dfce"/><circle cx="775" cy="116" r="6" class="dot" fill="#52e0cd"/><circle cx="869" cy="116" r="5" fill="#3c7782"/><circle cx="918" cy="168" r="8" class="node"/><circle cx="1013" cy="168" r="6" fill="#4dc5c2" class="glow"/><circle cx="894" cy="256" r="7" class="node"/><circle cx="1058" cy="256" r="8" class="node"/><circle cx="969" cy="343" r="7" class="node"/><circle cx="1085" cy="343" r="5" fill="#4dc5c2" class="glow"/>
<rect x="725" y="203" rx="10" width="130" height="46" fill="#123343" stroke="#337d85"/><text x="790" y="232" text-anchor="middle" class="sans" fill="#a9e7e0" font-size="15">BACKEND</text>
<rect x="970" y="84" rx="10" width="160" height="46" fill="#123343" stroke="#337d85"/><text x="1050" y="113" text-anchor="middle" class="sans" fill="#a9e7e0" font-size="15">AUTOMAÇÃO</text>
<rect x="1013" y="290" rx="10" width="114" height="40" fill="#123343" stroke="#337d85"/><text x="1070" y="315" text-anchor="middle" class="sans" fill="#a9e7e0" font-size="14">DADOS</text></g>
<text x="56" y="391" class="sans" fill="#6f9fa9" font-size="15" letter-spacing="2">SISTEMAS • INTEGRAÇÕES • INTELIGÊNCIA ARTIFICIAL</text>
</svg>